<svg width="200" height="200" viewBox="0 0 200 200" fill="none" xmlns="http://www.w3.org/2000/svg">
<circle cx="100" cy="100" r="98.5" stroke="black" stroke-width="3"/>
<path d="M77.8416 18.0001C71.7046 32.193 65.8316 37.9556 51.2471 44.5346" stroke="black" stroke-width="3" stroke-linecap="round"/>
<path d="M120.648 17.9999C126.751 32.7247 132.767 38.6238 147.882 45.1731" stroke="black" stroke-width="3" stroke-linecap="round"/>
<path d="M56.3016 76.6617C49.9118 91.9259 43.797 98.1234 28.6118 105.199" stroke="black" stroke-width="3" stroke-linecap="round"/>
<path d="M143.981 76.6618C150.371 91.9259 156.485 98.1235 171.671 105.199" stroke="black" stroke-width="3" stroke-linecap="round"/>
<line x1="1.5" y1="-1.5" x2="11.4899" y2="-1.5" transform="matrix(0.518168 0.855279 -0.784259 0.620433 49.5059 43.9999)" stroke="black" stroke-width="3" stroke-linecap="round"/>
<line x1="1.5" y1="-1.5" x2="12.7884" y2="-1.5" transform="matrix(0.548367 0.836238 -0.807341 0.590085 26.8706 105.154)" stroke="black" stroke-width="3" stroke-linecap="round"/>
<line x1="1.5" y1="-1.5" x2="12.7884" y2="-1.5" transform="matrix(-0.548367 0.836238 0.807341 0.590085 173.129 105.154)" stroke="black" stroke-width="3" stroke-linecap="round"/>
<line x1="1.5" y1="-1.5" x2="10.7669" y2="-1.5" transform="matrix(-0.548706 0.836016 -0.759298 -0.650743 148.519 43.9999)" stroke="black" stroke-width="3" stroke-linecap="round"/>
<rect x="56.4706" y="53.9999" width="87.0588" height="22" stroke="black" stroke-width="3" stroke-linejoin="round"/>
<rect x="46.8941" y="116" width="103.6" height="25" stroke="black" stroke-width="3" stroke-linejoin="round"/>
<rect x="34.7059" y="141" width="130.588" height="10" stroke="black" stroke-width="3" stroke-linejoin="round"/>
<rect x="26" y="151" width="148" height="10" stroke="black" stroke-width="3" stroke-linejoin="round"/>
<line x1="77.9941" y1="18.4999" x2="120.265" y2="18.4999" stroke="black" stroke-width="3" stroke-linecap="round"/>
<line x1="36.2059" y1="115.5" x2="163.794" y2="115.5" stroke="black" stroke-width="3" stroke-linecap="round"/>
</svg>
